<svg width="862" height="227" viewBox="0 0 862 227" fill="none" xmlns="http://www.w3.org/2000/svg">
<path d="M192.184 0.0249358C200.64 -0.224226 208.889 1.3638 216 6.14603C219.7 9.63906 222.704 13.6051 223.301 18.732C223.332 26.13 222.564 30.3984 217.375 35.9585C213.656 38.8316 209.629 39.4623 205 39.146C202.438 37.896 202.438 37.896 201 36.146C201 35.156 201 34.166 201 33.146C204.3 33.146 207.6 33.146 211 33.146C212.784 27.7929 212.859 22.9662 210.438 17.8335C205.752 12.668 201.107 10.5962 194.27 10.107C187.126 10.2299 181.61 12.8394 176.312 17.521C171.61 22.8584 171.586 28.0313 171.664 34.9038C172.135 39.4484 173.655 42.2622 176 46.146C176 46.806 176 47.466 176 48.146C176.66 48.146 177.32 48.146 178 48.146C178.874 49.254 178.874 49.254 179.766 50.3843C182.173 53.36 184.6 55.1792 187.75 57.3335C189.535 58.5552 191.296 59.8148 193 61.146C193 61.806 193 62.466 193 63.146C193.83 63.5289 193.83 63.5289 194.676 63.9195C202.754 68.1827 210.711 74.5306 217 81.146C217 81.806 217 82.466 217 83.146C217.66 83.146 218.32 83.146 219 83.146C227.181 90.8587 231.179 102.709 231.665 113.678C231.813 130.468 225.211 143.861 213.625 155.959C195.691 172.942 172.495 179.841 148.148 179.33C135.936 178.617 123.744 175.995 114 168.146C114 167.486 114 166.826 114 166.146C113.01 166.146 112.02 166.146 111 166.146C100.399 156.752 91.8961 142.448 90.8584 128.202C89.9316 110.9 94.2273 96.8303 105 83.146C105.66 83.146 106.32 83.146 107 83.146C107 82.486 107 81.826 107 81.146C115.941 72.1789 128.401 68.9241 140.625 68.8335C148.224 68.8274 154.33 69.2025 161 73.146C161.92 73.632 162.841 74.118 163.789 74.6187C170.777 78.6025 175.008 83.198 179 90.146C179.391 90.8228 179.781 91.4995 180.184 92.1968C181 94.146 181 94.146 181 98.146C180.01 98.146 179.02 98.146 178 98.146C176.711 96.6773 176.711 96.6773 175.375 94.646C168.255 84.8349 160.654 80.3965 149 77.146C148.279 76.9269 147.559 76.7077 146.816 76.482C138.634 74.6871 128.833 78.6578 122 82.9585C112.645 89.9275 106.225 100.468 104.25 112.029C104.167 112.728 104.085 113.426 104 114.146C103.917 114.803 103.835 115.461 103.75 116.138C103.138 126.279 106.536 137.917 111.949 146.447C113 148.146 113 148.146 114 151.146C114.66 151.146 115.32 151.146 116 151.146C116.536 151.847 117.072 152.549 117.625 153.271C125.98 163.385 138.945 168.077 151.719 169.435C165.987 169.897 181.353 165.58 192.379 156.38C194 155.146 194 155.146 197 154.146C197.718 152.84 198.376 151.5 199 150.146C200.711 147.758 202.472 145.413 204.246 143.072C208.338 136.245 209.538 129.523 209.438 121.646C209.43 120.812 209.422 119.977 209.415 119.117C209.251 113.045 208.496 108.244 205 103.146C204.553 102.467 204.105 101.787 203.645 101.087C197.765 92.7488 190.407 86.7241 182.18 80.8452C180.814 79.867 179.45 78.8862 178.088 77.9029C176.706 76.9052 175.319 75.9136 173.928 74.9283C172.249 73.7163 170.619 72.4365 169 71.146C169 70.486 169 69.826 169 69.146C167.515 68.651 167.515 68.651 166 68.146C166 67.486 166 66.826 166 66.146C164.515 65.651 164.515 65.651 163 65.146C154.85 55.4468 152.871 45.5591 153.746 33.2188C154.842 24.2845 159.659 17.2406 166 11.146C166.557 10.5917 167.114 10.0374 167.688 9.46634C174.868 2.78413 182.624 0.555098 192.184 0.0249358Z" fill="#4782BB"/>
<path d="M154.766 91.4429C155.503 91.6749 156.24 91.907 157 92.146C157.495 93.631 157.495 93.631 158 95.146C158.99 95.476 159.98 95.806 161 96.146C161 96.806 161 97.466 161 98.146C161.99 98.476 162.98 98.806 164 99.146C164 99.806 164 100.466 164 101.146C164.577 101.396 165.153 101.646 165.748 101.904C168.311 103.318 169.996 104.931 172.039 107.025C173.157 108.159 173.157 108.159 174.297 109.316C175.065 110.106 175.833 110.895 176.625 111.709C178.157 113.275 179.69 114.838 181.227 116.4C181.903 117.094 182.579 117.788 183.276 118.504C184.915 120.226 184.915 120.226 187 121.146C187 122.466 187 123.786 187 125.146C184.36 125.146 181.72 125.146 179 125.146C179.026 126.191 179.052 127.235 179.079 128.311C179.17 132.186 179.227 136.06 179.275 139.935C179.3 141.612 179.334 143.289 179.377 144.966C179.438 147.377 179.466 149.786 179.488 152.197C179.514 152.947 179.54 153.697 179.566 154.47C179.568 156.593 179.568 156.593 179 160.146C173.369 164.788 164.34 165.619 157.223 165.4C146.957 164.227 135.592 161.557 128 154.146C127.432 151.03 127.432 151.03 127.512 147.412C127.528 146.116 127.544 144.821 127.561 143.486C127.602 142.123 127.645 140.759 127.688 139.396C127.713 138.017 127.735 136.638 127.756 135.259C127.815 131.887 127.897 128.517 128 125.146C125.69 125.146 123.38 125.146 121 125.146C120.67 123.826 120.34 122.506 120 121.146C120.496 120.722 120.993 120.298 121.504 119.861C125.723 116.218 129.725 112.483 133.555 108.431C135 107.146 135 107.146 137 107.146C137.33 106.156 137.66 105.166 138 104.146C138.66 104.146 139.32 104.146 140 104.146C140.33 103.156 140.66 102.166 141 101.146C141.66 101.146 142.32 101.146 143 101.146C143.33 100.156 143.66 99.166 144 98.146C145.672 96.2867 145.672 96.2867 147.75 94.396C148.763 93.4447 148.763 93.4447 149.797 92.4742C152 91.146 152 91.146 154.766 91.4429ZM146 119.146C146 121.126 146 123.106 146 125.146C147.65 125.146 149.3 125.146 151 125.146C151 123.166 151 121.186 151 119.146C149.35 119.146 147.7 119.146 146 119.146ZM155 119.146C155 121.126 155 123.106 155 125.146C156.98 125.146 158.96 125.146 161 125.146C161 123.166 161 121.186 161 119.146C159.02 119.146 157.04 119.146 155 119.146ZM146 130.146C146 132.126 146 134.106 146 136.146C147.65 136.146 149.3 136.146 151 136.146C151 134.166 151 132.186 151 130.146C149.35 130.146 147.7 130.146 146 130.146ZM155 130.146C155 132.126 155 134.106 155 136.146C156.98 136.146 158.96 136.146 161 136.146C161 134.166 161 132.186 161 130.146C159.02 130.146 157.04 130.146 155 130.146Z" fill="#4582BE"/>
<path d="M255 82.146C258.795 84.6758 258.975 85.7338 260 90.146C260.332 94.0033 260.381 97.8383 260.375 101.709C260.373 102.782 260.372 103.855 260.37 104.961C260.245 113.066 259.249 119.659 256 127.146C255.7 127.922 255.399 128.698 255.09 129.498C252.437 135.996 248.971 142.366 245 148.146C244.34 148.146 243.68 148.146 243 148.146C242.742 148.718 242.484 149.291 242.219 149.88C240.886 152.357 239.349 154.28 237.5 156.396C236.892 157.102 236.283 157.809 235.656 158.537C234 160.146 234 160.146 232 160.146C231.792 160.709 231.585 161.273 231.371 161.853C224.187 173.867 203.196 181.683 190.363 185.139C174.137 189.154 153.266 191.466 138 183.146C138.33 182.156 138.66 181.166 139 180.146C139.856 180.306 140.712 180.466 141.594 180.63C152.391 182.265 162.529 180.936 173 178.146C174.267 177.817 175.534 177.489 176.84 177.15C196.477 171.725 219.438 159.489 231 142.146C231.66 142.146 232.32 142.146 233 142.146C233.24 141.625 233.48 141.104 233.727 140.568C235.405 137.375 237.395 134.406 239.375 131.396C248.107 117.907 252.837 104.833 253.605 88.6773C253.897 83.249 253.897 83.249 255 82.146Z" fill="#4A7FB6"/>
<path d="M192.172 0.0327579C200.626 -0.244201 208.894 1.36706 216 6.14604C219.7 9.63906 222.704 13.6051 223.301 18.732C223.332 26.13 222.564 30.3984 217.375 35.9585C213.656 38.8316 209.629 39.4623 205 39.146C202.438 37.896 202.438 37.896 201 36.146C201 35.156 201 34.166 201 33.146C204.3 33.146 207.6 33.146 211 33.146C212.784 27.7929 212.859 22.9662 210.438 17.8335C205.751 12.6667 201.105 10.5955 194.266 10.107C188.246 10.2108 183.239 12.2645 178 15.146C176.68 13.826 175.36 12.506 174 11.146C170.614 12.5973 168.511 14.4725 166 17.146C165 18.146 164 19.146 163 20.146C162.34 19.816 161.68 19.486 161 19.146C161.921 13.6177 165.8 10.549 170 7.14604C177.434 2.51848 183.539 0.483014 192.172 0.0327579Z" fill="#4E86BE"/>
<path d="M254 13.146C254.99 13.146 255.98 13.146 257 13.146C257.159 14.1334 257.317 15.1209 257.48 16.1382C257.714 17.4195 257.947 18.7009 258.188 20.021C258.408 21.2972 258.628 22.5734 258.855 23.8882C259.656 27.2687 259.656 27.2687 262.289 28.5327C265.779 29.3222 269.258 29.94 272.793 30.4859C275 31.146 275 31.146 277 34.146C275.964 34.342 274.927 34.5379 273.859 34.7398C266.376 36.0889 266.376 36.0889 260.148 40.0171C259.132 42.069 258.487 43.9121 258 46.146C257.753 47.136 257.505 48.126 257.25 49.146C257.126 50.136 257.126 50.136 257 51.146C256.01 51.146 255.02 51.146 254 51.146C253.902 50.4706 253.804 49.7951 253.703 49.0992C253.554 48.2071 253.404 47.3151 253.25 46.396C253.111 45.5143 252.972 44.6326 252.828 43.7242C251.799 40.5215 250.645 39.2111 248 37.146C245.213 36.0371 245.213 36.0371 242.25 35.396C241.265 35.1537 240.28 34.9113 239.266 34.6617C238.518 34.4915 237.77 34.3213 237 34.146C237 33.156 237 32.166 237 31.146C237.748 31.0481 238.495 30.9501 239.266 30.8492C245.349 30.0267 245.349 30.0267 250.625 27.146C252.792 23.994 253.223 21.8086 253.562 18.021C253.646 17.1109 253.73 16.2009 253.816 15.2632C253.907 14.2152 253.907 14.2152 254 13.146Z" fill="#487EB7"/>
<path d="M144 98.146C144.66 98.476 145.32 98.806 146 99.146C145 102.146 145 102.146 142 104.146C142.186 104.785 142.371 105.425 142.562 106.084C143.153 110.219 142.583 114.031 142 118.146C142.66 118.146 143.32 118.146 144 118.146C144 117.156 144 116.166 144 115.146C146.64 115.476 149.28 115.806 152 116.146C152 119.116 152 122.086 152 125.146C151.67 125.146 151.34 125.146 151 125.146C151 123.166 151 121.186 151 119.146C149.35 119.146 147.7 119.146 146 119.146C146 121.126 146 123.106 146 125.146C147.32 125.476 148.64 125.806 150 126.146C148.02 126.146 146.04 126.146 144 126.146C143.67 124.166 143.34 122.186 143 120.146C141.68 120.146 140.36 120.146 139 120.146C137.283 118.238 136.145 116.436 135 114.146C131.347 115.396 130.219 115.817 128 119.146C127.34 119.146 126.68 119.146 126 119.146C126 120.136 126 121.126 126 122.146C127.65 122.476 129.3 122.806 131 123.146C131 133.706 131 144.266 131 155.146C130.01 154.816 129.02 154.486 128 154.146C128 144.576 128 135.006 128 125.146C125.69 125.146 123.38 125.146 121 125.146C120.67 123.826 120.34 122.506 120 121.146C120.496 120.722 120.993 120.298 121.504 119.861C125.723 116.218 129.725 112.483 133.555 108.431C135 107.146 135 107.146 137 107.146C137.33 106.156 137.66 105.166 138 104.146C138.66 104.146 139.32 104.146 140 104.146C140.33 103.156 140.66 102.166 141 101.146C141.66 101.146 142.32 101.146 143 101.146C143.33 100.156 143.66 99.166 144 98.146Z" fill="#5487BA"/>
<path d="M231 147.146C231.66 147.476 232.32 147.806 233 148.146C232.67 151.776 232.34 155.406 232 159.146C231.01 159.476 230.02 159.806 229 160.146C229 160.806 229 161.466 229 162.146C229.66 162.476 230.32 162.806 231 163.146C228.69 164.796 226.38 166.446 224 168.146C224 167.486 224 166.826 224 166.146C223.278 166.62 222.556 167.095 221.812 167.584C219 169.146 219 169.146 216.375 169.584C213.835 169.898 213.835 169.898 212.688 172.146C210.648 174.563 209.864 174.532 206.812 174.896C204.925 175.02 204.925 175.02 203 175.146C202.34 173.496 201.68 171.846 201 170.146C202.32 170.146 203.64 170.146 205 170.146C205.99 169.486 206.98 168.826 208 168.146C208.25 165.062 208.25 165.062 208 162.146C209.433 161.305 210.872 160.473 212.312 159.646C213.113 159.182 213.914 158.718 214.738 158.24C217 157.146 217 157.146 220 157.146C221.37 156.715 222.725 156.231 224.062 155.709C224.755 155.442 225.447 155.175 226.16 154.9C228.048 154.153 228.048 154.153 230 153.146C229.979 152.342 229.959 151.537 229.938 150.709C230 148.146 230 148.146 231 147.146Z" fill="#4882BB"/>
<path d="M107 95.146C107.33 95.146 107.66 95.146 108 95.146C107.496 99.5779 106.605 103.713 105.437 108.021C102.374 120.304 104.401 133.406 110.75 144.459C111.178 145.115 111.606 145.771 112.047 146.447C113 148.146 113 148.146 113 151.146C111.68 151.146 110.36 151.146 109 151.146C108.67 151.806 108.34 152.466 108 153.146C108 152.156 108 151.166 108 150.146C107.34 150.146 106.68 150.146 106 150.146C105.505 148.661 105.505 148.661 105 147.146C104.34 148.466 103.68 149.786 103 151.146C102.01 150.486 101.02 149.826 100 149.146C100 148.156 100 147.166 100 146.146C99.34 146.146 98.68 146.146 98 146.146C97.67 146.806 97.34 147.466 97 148.146C95.293 145.535 94.9981 144.193 95.125 141.021C96 138.146 96 138.146 97.9375 136.771C100 136.146 100 136.146 102 136.146C101.835 134.991 101.67 133.836 101.5 132.646C100.355 122.14 100.239 111.401 103 101.146C103.66 101.146 104.32 101.146 105 101.146C105.144 100.527 105.289 99.9085 105.437 99.271C106 97.146 106 97.146 107 95.146Z" fill="#4882BE"/>
<path d="M238 49.146C238.66 49.476 239.32 49.806 240 50.146C240.603 52.3869 240.956 54.6317 241.34 56.9195C242.105 59.5016 242.86 60.5332 245 62.146C248.61 62.8764 248.61 62.8764 252 63.146C252.33 64.136 252.66 65.126 253 66.146C252.385 66.2324 251.77 66.3188 251.137 66.4077C245.998 67.2041 245.998 67.2041 242.062 70.3335C240.842 73.5655 239.853 76.7985 239 80.146C238.34 79.816 237.68 79.486 237 79.146C236.586 76.8609 236.586 76.8609 236.375 74.0835C236.3 73.1644 236.225 72.2453 236.148 71.2984C236.099 70.5881 236.05 69.8778 236 69.146C235.145 68.9643 234.291 68.7825 233.41 68.5952C232.305 68.3439 231.201 68.0925 230.062 67.8335C228.96 67.5899 227.858 67.3463 226.723 67.0952C225.824 66.782 224.926 66.4688 224 66.146C223.67 65.156 223.34 64.166 223 63.146C224.048 62.9643 224.048 62.9643 225.117 62.7788C226.482 62.5275 226.482 62.5275 227.875 62.271C229.232 62.0274 229.232 62.0274 230.617 61.7788C233.165 61.3156 233.165 61.3156 235 59.146C235.64 56.9815 235.64 56.9815 236.062 54.5835C236.903 50.2432 236.903 50.2432 238 49.146Z" fill="#5383B3"/>
<path d="M255 82.146C258.81 84.6858 258.984 85.7054 260 90.146C260.305 94.2119 260.325 98.2577 260.313 102.334C260.329 103.426 260.345 104.518 260.361 105.644C260.362 107.213 260.362 107.213 260.363 108.814C260.366 109.766 260.369 110.717 260.372 111.698C259.942 114.529 259.211 115.4 257 117.146C256.691 116.342 256.381 115.537 256.063 114.709C255.237 112.255 255.237 112.255 254 111.146C253.753 111.847 253.505 112.549 253.25 113.271C251.839 116.516 250.021 119.249 248 122.146C246.665 118.142 247.997 115.567 249.375 111.771C252.156 103.948 253.213 96.9406 253.605 88.6773C253.897 83.249 253.897 83.249 255 82.146Z" fill="#578ABF"/>
<path d="M274 46.146C274.99 46.146 275.98 46.146 277 46.146C277.04 46.7493 277.08 47.3526 277.121 47.9742C277.467 50.6252 277.88 52.7093 279 55.146C281.816 57.1073 284.721 58.1812 288 59.146C287.67 60.136 287.34 61.126 287 62.146C285.886 62.2492 284.772 62.3523 283.625 62.4585C282.429 62.6854 281.233 62.9123 280 63.146C277.704 66.5905 277.46 69.0841 277 73.146C276.01 73.146 275.02 73.146 274 73.146C273.795 72.5079 273.59 71.8699 273.379 71.2124C273.109 70.3861 272.84 69.5599 272.562 68.7085C272.296 67.8848 272.029 67.0611 271.754 66.2124C271.178 64.1838 271.178 64.1838 270 63.146C267.672 62.7784 265.338 62.4436 263 62.146C263 61.156 263 60.166 263 59.146C265.64 58.486 268.28 57.826 271 57.146C271.99 53.516 272.98 49.886 274 46.146Z" fill="#4578B0"/>
<path d="M203 145.146C203.99 145.476 204.98 145.806 206 146.146C206 146.806 206 147.466 206 148.146C205.34 148.146 204.68 148.146 204 148.146C204 148.806 204 149.466 204 150.146C203.34 150.476 202.68 150.806 202 151.146C201.049 154.43 200.899 155.843 202 159.146C200.67 159.053 200.67 159.053 199.312 158.959C195.544 159.172 194.088 160.062 191 162.146C189 163.146 187 164.146 185 165.146C184.67 165.476 184.34 165.806 184 166.146C184.66 166.476 185.32 166.806 186 167.146C186 167.806 186 168.466 186 169.146C187.32 169.806 188.64 170.466 190 171.146C187.416 172.869 185.451 173.835 182.562 174.834C181.801 175.106 181.039 175.378 180.254 175.658C177.782 176.193 176.37 175.95 174 175.146C174.99 175.146 175.98 175.146 177 175.146C177.33 173.166 177.66 171.186 178 169.146C177.01 169.476 176.02 169.806 175 170.146C172.427 170.216 169.884 170.24 167.312 170.209C166.611 170.204 165.909 170.2 165.186 170.195C163.457 170.183 161.728 170.165 160 170.146C160 169.816 160 169.486 160 169.146C160.871 168.987 161.743 168.829 162.641 168.666C173.62 166.515 183.634 163.677 192.379 156.38C194 155.146 194 155.146 197 154.146C197.704 152.832 198.363 151.494 199 150.146C200.305 148.457 201.634 146.786 203 145.146Z" fill="#6486AD"/>
<path d="M95 113.146C95.33 113.806 95.66 114.466 96 115.146C97.32 114.816 98.64 114.486 100 114.146C101.283 121.558 102.255 128.619 102 136.146C100.02 136.806 98.04 137.466 96 138.146C92.7818 130.369 92.679 123.503 93 115.146C93.66 115.146 94.32 115.146 95 115.146C95 114.486 95 113.826 95 113.146Z" fill="#4581BD"/>
<path d="M164 75.146C171.596 79.228 176.306 84.3174 180 92.146C180.688 95.4898 180.688 95.4898 181 98.146C180.01 98.146 179.02 98.146 178 98.146C176.711 96.6773 176.711 96.6773 175.375 94.646C169.405 86.3532 162.749 81.2396 153 78.146C153 77.816 153 77.486 153 77.146C154.438 77.2606 155.876 77.3881 157.312 77.521C158.513 77.6254 158.513 77.6254 159.738 77.732C162 78.146 162 78.146 165 80.146C164.67 78.496 164.34 76.846 164 75.146Z" fill="#4A7BAA"/>
<path d="M220 15.146C220.99 15.476 221.98 15.806 223 16.146C223.576 28.1394 223.576 28.1394 220 33.146C215.98 37.4527 212.956 38.9286 207.059 39.2867C205 39.146 205 39.146 202.438 37.896C201 36.146 201 36.146 201 33.146C204.3 33.146 207.6 33.146 211 33.146C211.66 31.496 212.32 29.846 213 28.146C213.66 28.146 214.32 28.146 215 28.146C215 25.506 215 22.866 215 20.146C215.66 20.806 216.32 21.466 217 22.146C216.793 24.4585 216.793 24.4585 216.188 27.146C215.899 28.4763 215.899 28.4763 215.605 29.8335C215 32.146 215 32.146 214 34.146C215.32 33.816 216.64 33.486 218 33.146C219.628 26.9982 220.202 21.5059 220 15.146Z" fill="#547DAD"/>
<path d="M93 104.146C93.66 105.136 94.32 106.126 95 107.146C96.98 106.156 98.96 105.166 101 104.146C101 104.806 101 105.466 101 106.146C101.66 106.806 102.32 107.466 103 108.146C102.758 110.31 102.758 110.31 102.125 112.771C101.921 113.588 101.718 114.406 101.508 115.248C101.256 116.187 101.256 116.187 101 117.146C100.67 116.156 100.34 115.166 100 114.146C97.69 114.476 95.38 114.806 93 115.146C93.3213 122.836 93.8149 129.893 96.4766 137.158C97 139.146 97 139.146 96 142.146C91.7304 138.321 91.1926 133.617 90.8862 128.095C90.806 125.757 90.7679 123.423 90.75 121.084C90.7407 120.328 90.7315 119.573 90.7219 118.794C90.7507 113.61 91.5739 109.132 93 104.146Z" fill="#4C84BD"/>
<path d="M187 122.146C187 123.136 187 124.126 187 125.146C184.36 125.146 181.72 125.146 179 125.146C179.016 126.196 179.031 127.246 179.048 128.327C179.102 132.215 179.136 136.102 179.165 139.99C179.18 141.674 179.2 143.358 179.226 145.042C179.263 147.459 179.28 149.877 179.293 152.294C179.308 153.05 179.324 153.805 179.34 154.583C179.341 156.706 179.341 156.706 179 160.146C176 162.146 176 162.146 173.812 161.771C173.214 161.565 172.616 161.359 172 161.146C172.99 160.486 173.98 159.826 175 159.146C175.338 156.387 175.489 153.841 175.512 151.076C175.53 150.279 175.548 149.483 175.566 148.663C175.62 146.116 175.654 143.569 175.688 141.021C175.721 139.296 175.755 137.57 175.791 135.845C175.876 131.612 175.943 127.379 176 123.146C179.733 122.489 183.206 122.034 187 122.146Z" fill="#7597BB"/>
<path d="M216 6.14603C217.797 7.814 217.797 7.814 219 9.14603C218.67 10.136 218.34 11.126 218 12.146C217.01 12.146 216.02 12.146 215 12.146C215 11.486 215 10.826 215 10.146C214.01 9.81603 213.02 9.48603 212 9.14603C211.381 8.48603 210.763 7.82603 210.125 7.14603C207.712 4.87542 206.239 4.50594 203 4.14603C202.67 4.80603 202.34 5.46603 202 6.14603C202.66 6.80603 203.32 7.46603 204 8.14603C200.002 9.10223 196.292 9.24999 192.188 9.20853C191.026 9.1995 189.865 9.19048 188.668 9.18118C187.788 9.16958 186.907 9.15798 186 9.14603C188.762 6.3838 191.207 6.56747 195 6.14603C193.35 5.81603 191.7 5.48603 190 5.14603C197.571 -2.42542 208.172 1.28765 216 6.14603Z" fill="#4978AD"/>
<path d="M200 171.146C199.387 174.108 198.746 175.527 197 178.146C197.66 178.476 198.32 178.806 199 179.146C197.35 179.806 195.7 180.466 194 181.146C194 181.806 194 182.466 194 183.146C190.04 183.146 186.08 183.146 182 183.146C182 182.156 182 181.166 182 180.146C183.32 180.476 184.64 180.806 186 181.146C185.814 180.032 185.814 180.032 185.625 178.896C186 176.146 186 176.146 188.625 173.896C192.484 171.895 195.678 171.146 200 171.146Z" fill="#447FBA"/>
<path d="M120 122.146C121.458 122.119 122.917 122.1 124.375 122.084C125.187 122.072 125.999 122.06 126.836 122.048C129 122.146 129 122.146 131 123.146C131 133.706 131 144.266 131 155.146C130.01 154.816 129.02 154.486 128 154.146C128 144.576 128 135.006 128 125.146C125.69 125.146 123.38 125.146 121 125.146C120.67 124.156 120.34 123.166 120 122.146Z" fill="#6D95B1"/>
<path d="M178 169.146C177.67 171.126 177.34 173.106 177 175.146C171.593 175.919 166.461 176.244 161 176.146C161 174.813 161 173.479 161 172.146C158.03 172.146 155.06 172.146 152 172.146C152 171.816 152 171.486 152 171.146C160.74 169.698 169.139 168.854 178 169.146Z" fill="#4078B2"/>
<path d="M172 20.146C171.333 26.146 170.667 32.146 170 38.146C169.34 37.816 168.68 37.486 168 37.146C168 32.526 168 27.906 168 23.146C167.34 24.796 166.68 26.446 166 28.146C162.375 29.4585 162.375 29.4585 159 30.146C159 29.486 159 28.826 159 28.146C158.34 27.816 157.68 27.486 157 27.146C157.33 25.496 157.66 23.846 158 22.146C158.99 21.816 159.98 21.486 161 21.146C161 22.466 161 23.786 161 25.146C161.66 25.476 162.32 25.806 163 26.146C163.062 25.5479 163.124 24.9498 163.188 24.3335C164 22.146 164 22.146 166.375 20.3335C169 19.146 169 19.146 172 20.146Z" fill="#4482BA"/>
<path d="M199 0.146015C199 0.806015 199 1.46601 199 2.14601C196.69 2.80601 194.38 3.46601 192 4.14601C194.475 5.13601 194.475 5.13601 197 6.14601C197 6.47601 197 6.80601 197 7.14601C192.545 7.64101 192.545 7.64102 188 8.14602C189.32 8.80602 190.64 9.46601 192 10.146C189.36 10.476 186.72 10.806 184 11.146C183 8.14602 183 8.14602 183 5.14601C184.32 5.14601 185.64 5.14601 187 5.14601C187 4.48601 187 3.82601 187 3.14601C185.35 2.81601 183.7 2.48601 182 2.14601C182 1.81601 182 1.48601 182 1.14601C187.72 0.313957 193.222 0.0256481 199 0.146015Z" fill="#538BC0"/>
<path d="M141.5 70.896C142.272 70.8883 143.044 70.8806 143.84 70.8726C147.736 70.8861 149.69 70.9393 153 73.146C153 73.806 153 74.466 153 75.146C145.587 76.429 136.469 77.4585 130 73.146C133.849 70.5797 137.043 70.8514 141.5 70.896Z" fill="#437FB7"/>
<path d="M160 29.146C161.32 29.146 162.64 29.146 164 29.146C164 32.446 164 35.746 164 39.146C165.32 39.476 166.64 39.806 168 40.146C168 41.796 168 43.446 168 45.146C166.35 44.816 164.7 44.486 163 44.146C162.34 46.126 161.68 48.106 161 50.146C160.67 50.146 160.34 50.146 160 50.146C160 43.216 160 36.286 160 29.146Z" fill="#4083BF"/>
<path d="M186 167.146C186 167.806 186 168.466 186 169.146C187.32 169.806 188.64 170.466 190 171.146C187.416 172.869 185.451 173.835 182.562 174.834C181.801 175.106 181.039 175.378 180.254 175.658C177.782 176.193 176.37 175.95 174 175.146C174.99 175.146 175.98 175.146 177 175.146C177.33 173.166 177.66 171.186 178 169.146C177.01 169.476 176.02 169.806 175 170.146C175 169.486 175 168.826 175 168.146C179.122 166.517 181.707 165.883 186 167.146Z" fill="#5487BD"/>
<path d="M193 184.146C191.168 184.631 189.335 185.109 187.5 185.584C186.479 185.85 185.458 186.117 184.406 186.392C177.38 187.947 170.662 188.284 163.5 188.209C162.678 188.204 161.855 188.199 161.008 188.195C159.005 188.183 157.003 188.165 155 188.146C155 187.486 155 186.826 155 186.146C156.671 186.09 156.671 186.09 158.375 186.033C167.758 185.649 176.583 184.672 185.742 182.572C189.081 182.135 190.286 182.257 193 184.146Z" fill="#628AB2"/>
<path d="M199 93.146C199.928 93.4967 200.856 93.8473 201.812 94.2085C204.98 95.4699 204.98 95.4699 208 94.146C209 97.146 209 97.146 208.375 99.9585C207.682 103.179 207.682 103.179 209.465 105.791C211.416 110.056 211.34 113.406 211.188 118.021C211.174 118.805 211.16 119.589 211.146 120.396C211.111 122.313 211.058 124.23 211 126.146C210.67 126.146 210.34 126.146 210 126.146C209.961 124.787 209.961 124.787 209.922 123.4C209.405 112.293 207.174 105.354 200.172 96.7749C199 95.146 199 95.146 199 93.146Z" fill="#4D7EB1"/>
<path d="M253 103.146C253.66 103.146 254.32 103.146 255 103.146C255.33 105.126 255.66 107.106 256 109.146C256.99 109.146 257.98 109.146 259 109.146C259.125 112.021 259.125 112.021 259 115.146C258.34 115.806 257.68 116.466 257 117.146C256.691 116.342 256.381 115.537 256.063 114.709C255.237 112.255 255.237 112.255 254 111.146C253.753 111.847 253.505 112.549 253.25 113.271C251.839 116.516 250.021 119.249 248 122.146C246.649 118.094 248.012 115.379 249.375 111.521C249.61 110.828 249.844 110.134 250.086 109.419C251.846 104.3 251.846 104.3 253 103.146Z" fill="#4E75A2"/>
<path d="M107 95.146C107.33 95.146 107.66 95.146 108 95.146C107.512 99.4422 106.665 103.417 105.5 107.584C103.559 115.035 103.282 122.487 103 130.146C100.573 126.506 100.696 123.79 100.75 119.584C100.754 118.871 100.758 118.159 100.762 117.425C100.853 111.838 101.544 106.553 103 101.146C103.66 101.146 104.32 101.146 105 101.146C105.144 100.527 105.289 99.9085 105.438 99.271C106 97.146 106 97.146 107 95.146Z" fill="#43719F"/>
<path d="M160 59.146C162.438 59.9585 162.438 59.9585 165 61.146C165.33 62.136 165.66 63.126 166 64.146C166.66 64.146 167.32 64.146 168 64.146C168.186 64.7029 168.371 65.2598 168.562 65.8335C171.012 69.7746 175.043 72.3525 179.312 74.0835C181.988 75.7684 182.233 78.2046 183 81.146C172.404 74.2204 172.404 74.2204 169 71.146C169 70.486 169 69.826 169 69.146C168.01 68.816 167.02 68.486 166 68.146C166 67.486 166 66.826 166 66.146C165.01 65.816 164.02 65.486 163 65.146C160 61.7016 160 61.7016 160 59.146Z" fill="#6081A6"/>
<path d="M196 158.146C198.062 158.584 198.062 158.584 200 159.146C199.505 159.559 199.01 159.971 198.5 160.396C196.566 162.268 196.566 162.268 197 166.146C193.924 166.439 193.924 166.439 190.848 166.732C190.238 166.869 189.628 167.005 189 167.146C188.67 167.806 188.34 168.466 188 169.146C187.34 169.146 186.68 169.146 186 169.146C186 168.486 186 167.826 186 167.146C184.68 166.486 183.36 165.826 182 165.146C182.927 164.725 183.854 164.303 184.809 163.869C186.006 163.321 187.204 162.773 188.438 162.209C189.632 161.663 190.827 161.118 192.059 160.556C194.828 159.429 194.828 159.429 196 158.146Z" fill="#4683C2"/>
<path d="M236 52.146C236.33 52.146 236.66 52.146 237 52.146C237.027 53.6043 237.046 55.0626 237.062 56.521C237.074 57.3331 237.086 58.1452 237.098 58.982C237 61.146 237 61.146 236 63.146C236.99 63.476 237.98 63.806 239 64.146C239 65.136 239 66.126 239 67.146C237.68 66.816 236.36 66.486 235 66.146C235 67.136 235 68.126 235 69.146C234.319 68.8573 233.639 68.5685 232.938 68.271C229.671 67.0201 226.372 66.0715 223 65.146C223 64.486 223 63.826 223 63.146C224.048 62.9643 224.048 62.9643 225.117 62.7788C226.482 62.5275 226.482 62.5275 227.875 62.271C229.232 62.0274 229.232 62.0274 230.617 61.7788C233.165 61.3156 233.165 61.3156 235 59.146C235.4 56.8233 235.74 54.4886 236 52.146Z" fill="#617E9D"/>
<path d="M153 129.146C153.66 129.146 154.32 129.146 155 129.146C155 131.456 155 133.766 155 136.146C156.98 136.146 158.96 136.146 161 136.146C161 133.836 161 131.526 161 129.146C161.66 129.146 162.32 129.146 163 129.146C163.098 135.298 163.098 135.298 163 137.146C161.114 139.032 158.422 138.278 155.918 138.283C155.12 138.279 154.322 138.275 153.5 138.271C152.702 138.275 151.904 138.279 151.082 138.283C145.127 138.273 145.127 138.273 144 137.146C143.959 135.146 143.957 133.146 144 131.146C144.33 131.146 144.66 131.146 145 131.146C145 132.796 145 134.446 145 136.146C147.31 136.146 149.62 136.146 152 136.146C152.33 133.836 152.66 131.526 153 129.146Z" fill="#386494"/>
<path d="M139 180.146C139.797 180.299 140.593 180.453 141.414 180.611C145.734 181.256 150.015 181.496 154.375 181.709C155.622 181.773 155.622 181.773 156.895 181.839C158.93 181.945 160.965 182.046 163 182.146C159.965 184.17 158.806 184.467 155.312 184.771C154.504 184.846 153.696 184.921 152.863 184.998C151.941 185.071 151.941 185.071 151 185.146C151 185.476 151 185.806 151 186.146C145.739 186.462 142.554 185.812 138 183.146C138.33 182.156 138.66 181.166 139 180.146Z" fill="#6581A1"/>
<path d="M112 164.146C115.358 165.3 117.991 166.814 120.875 168.834C123.803 170.737 125.516 171.48 129 170.959C129.99 170.69 130.98 170.422 132 170.146C132.66 171.466 133.32 172.786 134 174.146C133.34 174.806 132.68 175.466 132 176.146C127.228 175.853 123.834 174.23 119.75 171.834C118.714 171.239 117.677 170.645 116.609 170.033C114.034 168.171 113.064 167.085 112 164.146Z" fill="#5D88B7"/>
<path d="M91 112.146C91.99 112.146 92.98 112.146 94 112.146C93.9652 113.257 93.9304 114.368 93.8945 115.513C93.7299 123.179 93.596 130.004 96.4414 137.263C97 139.146 97 139.146 96 142.146C92.2158 138.756 91.5395 135.058 91 130.146C90.7756 124.147 90.8835 118.146 91 112.146Z" fill="#6188AC"/>
<path d="M227 99.146C229.754 103.277 231.26 105.894 231.195 110.912C231.189 111.801 231.182 112.691 231.176 113.607C231.159 114.527 231.142 115.448 231.125 116.396C231.116 117.332 231.107 118.268 231.098 119.232C231.074 121.537 231.041 123.841 231 126.146C230.34 126.476 229.68 126.806 229 127.146C228.303 123.749 227.949 120.539 228 117.084C228.082 111.078 227.517 105.124 227 99.146Z" fill="#486D98"/>
<path d="M156 25.146C156.33 25.806 156.66 26.466 157 27.146C157.99 27.476 158.98 27.806 160 28.146C159.625 30.5835 159.625 30.5835 159 33.146C158.01 33.641 158.01 33.641 157 34.146C157 39.096 157 44.046 157 49.146C156.01 48.816 155.02 48.486 154 48.146C153.946 45.4374 153.906 42.7299 153.875 40.021C153.858 39.2605 153.841 38.4999 153.824 37.7163C153.785 33.1133 154.241 29.4814 156 25.146Z" fill="#6086A9"/>
<path d="M113 149.146C113.33 149.806 113.66 150.466 114 151.146C114.66 151.146 115.32 151.146 116 151.146C115.67 152.136 115.34 153.126 115 154.146C115.309 155.569 115.309 155.569 115.625 157.021C116.083 160.838 115.31 162.151 113 165.146C112.34 165.476 111.68 165.806 111 166.146C111.33 163.506 111.66 160.866 112 158.146C111.01 157.486 110.02 156.826 109 156.146C108.812 153.521 108.812 153.521 109 151.146C110.32 151.146 111.64 151.146 113 151.146C113 150.486 113 149.826 113 149.146Z" fill="#4B87C2"/>
<path d="M217 19.146C218.32 19.146 219.64 19.146 221 19.146C220.885 20.7301 220.758 22.3133 220.625 23.896C220.555 24.7777 220.486 25.6595 220.414 26.5679C219.989 29.2172 219.536 30.9459 218 33.146C215.875 33.896 215.875 33.896 214 34.146C214.307 31.8328 214.621 29.5205 214.938 27.2085C215.112 25.9208 215.286 24.633 215.465 23.3062C216 20.146 216 20.146 217 19.146Z" fill="#4381BF"/>
<path d="M162 126.146C162.33 127.136 162.66 128.126 163 129.146C160.261 130.516 158.029 130.272 155 130.146C154.34 129.816 153.68 129.486 153 129.146C152.67 131.456 152.34 133.766 152 136.146C151.67 136.146 151.34 136.146 151 136.146C151 134.166 151 132.186 151 130.146C149.35 130.146 147.7 130.146 146 130.146C146 132.126 146 134.106 146 136.146C145.67 136.146 145.34 136.146 145 136.146C144.67 133.506 144.34 130.866 144 128.146C145.132 128.085 146.264 128.025 147.43 127.962C148.911 127.878 150.393 127.793 151.875 127.709C152.621 127.669 153.368 127.63 154.137 127.589C158.2 127.43 158.2 127.43 162 126.146Z" fill="#6693B9"/>
<path d="M227 128.146C227.66 128.146 228.32 128.146 229 128.146C227.86 135.871 225.062 142.115 220 148.146C219.01 148.146 218.02 148.146 217 148.146C218.642 143.472 218.642 143.472 220.406 141.865C222.605 139.493 223.496 136.953 224.688 133.959C225.124 132.872 225.561 131.785 226.012 130.666C226.338 129.834 226.664 129.003 227 128.146Z" fill="#436E9E"/>
<path d="M255 82.146C258.736 84.637 258.969 85.8345 260 90.146C260.218 93.1115 260.19 96.0497 260.125 99.021C260.116 99.8048 260.107 100.589 260.098 101.396C260.074 103.313 260.038 105.229 260 107.146C259.67 107.146 259.34 107.146 259 107.146C258.34 101.866 257.68 96.586 257 91.146C256.34 91.146 255.68 91.146 255 91.146C254.121 84.9937 254.121 84.9937 254 83.146C254.33 82.816 254.66 82.486 255 82.146Z" fill="#4E7A9C"/>
<path d="M102 87.146C102.99 87.476 103.98 87.806 105 88.146C104.196 89.1567 103.391 90.1673 102.562 91.2085C99.9509 94.8268 99.5637 97.7172 99 102.146C97 105.584 97 105.584 95 108.146C94.67 108.146 94.34 108.146 94 108.146C94.4093 99.5511 97.2974 94.1999 102 87.146Z" fill="#52739A"/>
<path d="M156.562 117.084C157.697 117.104 158.831 117.125 160 117.146C160 117.476 160 117.806 160 118.146C158.35 118.146 156.7 118.146 155 118.146C155.33 120.456 155.66 122.766 156 125.146C158.97 125.641 158.97 125.641 162 126.146C162 126.476 162 126.806 162 127.146C156.06 127.146 150.12 127.146 144 127.146C144 126.816 144 126.486 144 126.146C146.64 125.816 149.28 125.486 152 125.146C151.979 124.012 151.959 122.877 151.938 121.709C152.017 117.163 152.017 117.163 156.562 117.084Z" fill="#305F8D"/>
<path d="M134 108.146C135 110.146 135 110.146 135 113.146C134.103 113.517 134.103 113.517 133.188 113.896C130.712 115.31 129.666 116.875 128 119.146C127.34 119.146 126.68 119.146 126 119.146C126.33 120.466 126.66 121.786 127 123.146C124.69 122.816 122.38 122.486 120 122.146C124.667 117.479 129.333 112.813 134 108.146Z" fill="#6382A7"/>
<path d="M105 83.146C105.66 83.146 106.32 83.146 107 83.146C108.125 87.896 108.125 87.896 107 90.146C109.475 91.136 109.475 91.136 112 92.146C111.01 94.126 110.02 96.106 109 98.146C103.237 92.8268 103.237 92.8268 103 89.146C103.4 86.8792 103.97 85.2061 105 83.146Z" fill="#5786B6"/>
<path d="M114 152.146C117.669 154.255 120.997 156.58 124.312 159.209C125.196 159.901 126.079 160.593 126.988 161.306C127.652 161.913 128.316 162.52 129 163.146C129 163.806 129 164.466 129 165.146C127.35 165.476 125.7 165.806 124 166.146C123.67 165.156 123.34 164.166 123 163.146C122.34 162.816 121.68 162.486 121 162.146C121.33 161.486 121.66 160.826 122 160.146C121.423 159.899 120.845 159.651 120.25 159.396C117.671 157.963 115.939 156.362 114 154.146C114 153.486 114 152.826 114 152.146Z" fill="#5781B1"/>
<path d="M155 72.146C157.923 71.9024 159.628 71.9499 162.25 73.3335C164 75.146 164 75.146 165 80.146C159.06 78.661 159.06 78.661 153 77.146C153.66 75.496 154.32 73.846 155 72.146Z" fill="#477DB3"/>
<path d="M164 75.146C165.336 75.9542 166.669 76.7677 168 77.5835C168.743 78.036 169.485 78.4884 170.25 78.9546C171.116 79.5444 171.116 79.5444 172 80.146C172 80.476 172 80.806 172 81.146C169.69 81.146 167.38 81.146 165 81.146C164.67 81.806 164.34 82.466 164 83.146C160.37 81.496 156.74 79.846 153 78.146C153 77.816 153 77.486 153 77.146C154.438 77.2606 155.876 77.3881 157.312 77.521C158.513 77.6254 158.513 77.6254 159.738 77.732C162 78.146 162 78.146 165 80.146C164.67 78.496 164.34 76.846 164 75.146Z" fill="#6387AD"/>
<path d="M169 8.14603C169.99 8.47603 170.98 8.80603 172 9.14603C172 10.136 172 11.126 172 12.146C170.013 13.4988 168.013 14.8317 166 16.146C165.67 17.136 165.34 18.126 165 19.146C164.01 19.476 163.02 19.806 162 20.146C161.254 18.4117 161.254 18.4117 161 16.146C162.652 14.0054 162.652 14.0054 164.938 11.896C165.689 11.1896 166.441 10.4832 167.215 9.7554C167.804 9.22431 168.393 8.69321 169 8.14603Z" fill="#4A76A2"/>
<path d="M175 181.146C175 181.806 175 182.466 175 183.146C176.98 182.816 178.96 182.486 181 182.146C180.67 183.136 180.34 184.126 180 185.146C173.565 185.641 173.565 185.641 167 186.146C167.33 185.486 167.66 184.826 168 184.146C166.68 183.486 165.36 182.826 164 182.146C167.735 181.571 171.213 181.146 175 181.146Z" fill="#4583C3"/>
<path d="M206 150.146C208.475 151.136 208.475 151.136 211 152.146C210.835 152.744 210.67 153.342 210.5 153.959C209.889 156.259 209.889 156.259 210 159.146C207.5 160.834 207.5 160.834 205 162.146C205.33 160.496 205.66 158.846 206 157.146C205.34 157.146 204.68 157.146 204 157.146C204 156.486 204 155.826 204 155.146C204.66 154.816 205.32 154.486 206 154.146C206 152.826 206 151.506 206 150.146Z" fill="#5988BF"/>
<path d="M166 102.146C170.919 106.262 175.526 110.55 180 115.146C179.67 116.136 179.34 117.126 179 118.146C178.518 117.652 178.036 117.159 177.539 116.65C176.907 116.009 176.276 115.369 175.625 114.709C174.999 114.07 174.372 113.432 173.727 112.775C172.083 111.067 172.083 111.067 170 110.146C170 109.486 170 108.826 170 108.146C168.68 107.816 167.36 107.486 166 107.146C166 105.479 166 103.813 166 102.146Z" fill="#5F7EA7"/>
<path d="M277 62.146C277.66 62.806 278.32 63.466 279 64.146C278.758 66.3101 278.758 66.3101 278.125 68.771C277.921 69.5883 277.718 70.4056 277.508 71.2476C277.34 71.8741 277.173 72.5006 277 73.146C276.01 73.146 275.02 73.146 274 73.146C273.01 69.846 272.02 66.546 271 63.146C273.875 62.521 273.875 62.521 277 62.146Z" fill="#6887A9"/>
<path d="M169 19.146C169.99 19.476 170.98 19.806 172 20.146C171.333 26.146 170.667 32.146 170 38.146C169.34 37.816 168.68 37.486 168 37.146C167.973 34.521 167.953 31.8962 167.938 29.271C167.929 28.5247 167.921 27.7783 167.912 27.0093C167.887 21.3726 167.887 21.3726 169 19.146Z" fill="#3D6E9C"/>
<path d="M182 56.146C186.508 56.6763 189.42 58.3982 193 61.146C193 61.806 193 62.466 193 63.146C194.32 63.806 195.64 64.466 197 65.146C197 66.136 197 67.126 197 68.146C196.42 67.6523 195.84 67.1586 195.242 66.6499C189.371 61.7135 189.371 61.7135 182 60.146C182 58.826 182 57.506 182 56.146Z" fill="#4B6F9B"/>
<path d="M220 15.146C220.99 15.476 221.98 15.806 223 16.146C223.554 27.6677 223.554 27.6677 220 33.146C219.01 33.146 218.02 33.146 217 33.146C217.217 32.6008 217.433 32.0555 217.656 31.4937C219.763 25.7866 220.289 21.2197 220 15.146Z" fill="#476C93"/>
<path d="M204 148.146C204.66 148.146 205.32 148.146 206 148.146C206.33 150.456 206.66 152.766 207 155.146C206.01 155.146 205.02 155.146 204 155.146C204 155.806 204 156.466 204 157.146C204.66 157.146 205.32 157.146 206 157.146C205.67 158.136 205.34 159.126 205 160.146C204.67 159.486 204.34 158.826 204 158.146C201.983 157.013 201.983 157.013 200 156.146C200.66 154.166 201.32 152.186 202 150.146C202.66 150.146 203.32 150.146 204 150.146C204 149.486 204 148.826 204 148.146Z" fill="#4282BD"/>
<path d="M229 148.146C229.66 148.476 230.32 148.806 231 149.146C230.805 151.505 230.805 151.505 230 154.146C227.82 155.474 227.82 155.474 225.125 156.396C224.241 156.711 223.356 157.025 222.445 157.349C221.638 157.612 220.831 157.875 220 158.146C219.01 158.476 218.02 158.806 217 159.146C217 158.486 217 157.826 217 157.146C218.645 155.892 218.645 155.892 220.812 154.584C221.52 154.149 222.228 153.715 222.957 153.267C225 152.146 225 152.146 228 151.146C228.33 150.156 228.66 149.166 229 148.146Z" fill="#4182C0"/>
<path d="M201 33.146C203.97 33.476 206.94 33.806 210 34.146C210.33 35.796 210.66 37.446 211 39.146C207.672 39.3729 205.582 39.4677 202.625 37.8335C201 36.146 201 36.146 201 33.146Z" fill="#5575A0"/>
<path d="M265 31.146C266.624 31.0651 268.25 31.0069 269.875 30.9585C270.78 30.9237 271.685 30.8889 272.617 30.8531C273.797 30.9981 273.797 30.9981 275 31.146C275.66 32.136 276.32 33.126 277 34.146C274.355 35.4683 272.322 35.2428 269.375 35.2085C268.372 35.1995 267.369 35.1905 266.336 35.1812C265.565 35.1696 264.794 35.158 264 35.146C264.99 34.816 265.98 34.486 267 34.146C267 33.486 267 32.826 267 32.146C266.34 31.816 265.68 31.486 265 31.146Z" fill="#4B7197"/>
<path d="M104 134.146C107.518 136.492 108.378 138.335 110.25 142.084C111.062 143.675 111.062 143.675 111.891 145.298C113 148.146 113 148.146 112 151.146C109 147.396 109 147.396 109 145.146C108.34 145.146 107.68 145.146 107 145.146C104.434 141.297 104.449 138.711 104 134.146Z" fill="#406B93"/>
<path d="M130 166.146C132.97 166.641 132.97 166.641 136 167.146C135.01 167.641 135.01 167.641 134 168.146C134.33 168.909 134.66 169.672 135 170.459C136 173.146 136 173.146 136 176.146C134.68 175.816 133.36 175.486 132 175.146C132 173.826 132 172.506 132 171.146C130.68 171.146 129.36 171.146 128 171.146C128.66 169.496 129.32 167.846 130 166.146Z" fill="#3B77AC"/>
<path d="M171 40.146C173.724 42.4988 174.814 44.771 176 48.146C176.66 48.146 177.32 48.146 178 48.146C179.625 50.646 179.625 50.646 181 53.146C177.37 53.146 176.609 52.5922 174 50.146C171.77 46.4034 171 44.5611 171 40.146Z" fill="#557A9F"/>
<path d="M145 69.146C146.626 69.26 148.251 69.3876 149.875 69.521C150.78 69.5906 151.685 69.6602 152.617 69.732C155 70.146 155 70.146 157 72.146C156.34 72.806 155.68 73.466 155 74.146C154.01 75.631 154.01 75.631 153 77.146C151.68 77.146 150.36 77.146 149 77.146C149 76.486 149 75.826 149 75.146C150.32 75.146 151.64 75.146 153 75.146C150.647 72.4218 148.375 71.3319 145 70.146C145 69.816 145 69.486 145 69.146Z" fill="#5F85B0"/>
<path d="M131 69.146C133.291 69.0922 135.583 69.0533 137.875 69.021C139.789 68.9862 139.789 68.9862 141.742 68.9507C145 69.146 145 69.146 147 71.146C137.595 71.641 137.595 71.641 128 72.146C128.99 71.816 129.98 71.486 131 71.146C131 70.486 131 69.826 131 69.146Z" fill="#4C78A3"/>
<path d="M257 19.146C259 22.146 259 22.146 259.312 24.7085C259.539 25.5129 259.766 26.3173 260 27.146C262.362 28.4075 262.362 28.4075 265 29.146C265.99 29.806 266.98 30.466 268 31.146C266.68 31.476 265.36 31.806 264 32.146C264 31.486 264 30.826 264 30.146C261.69 29.816 259.38 29.486 257 29.146C257 25.846 257 22.546 257 19.146Z" fill="#698AAD"/>
<path d="M144 162.146C150.433 162.051 156.658 161.993 163 163.146C163 163.806 163 164.466 163 165.146C156.429 165.394 150.43 164.47 144 163.146C144 162.816 144 162.486 144 162.146Z" fill="#6D8EBA"/>
<path d="M176 89.146C179 90.146 179 90.146 180.188 91.9585C181 94.146 181 94.146 181 98.146C180.01 98.146 179.02 98.146 178 98.146C176.25 95.896 176.25 95.896 175 93.146C175.312 90.8335 175.312 90.8335 176 89.146Z" fill="#506784"/>
<path d="M237 31.146C239.64 31.146 242.28 31.146 245 31.146C245.33 32.136 245.66 33.126 246 34.146C246.66 34.476 247.32 34.806 248 35.146C243.452 35.3244 240.121 35.1439 236 33.146C236.33 32.486 236.66 31.826 237 31.146Z" fill="#3A558F"/>
<path d="M156 31.146C156.66 31.806 157.32 32.466 158 33.146C158.66 32.486 159.32 31.826 160 31.146C160.195 33.1037 160.38 35.0622 160.562 37.021C160.667 38.1116 160.771 39.2021 160.879 40.3257C161 43.146 161 43.146 160 45.146C159.34 45.146 158.68 45.146 158 45.146C158 42.176 158 39.206 158 36.146C157.01 36.641 157.01 36.641 156 37.146C156 35.166 156 33.186 156 31.146Z" fill="#477EB9"/>
<path d="M251 27.146C251.33 28.136 251.66 29.126 252 30.146C251.01 30.641 251.01 30.641 250 31.146C249.342 34.1754 249.342 34.1754 249 37.146C247.35 36.816 245.7 36.486 244 36.146C244.66 35.486 245.32 34.826 246 34.146C245.34 32.826 244.68 31.506 244 30.146C246.31 29.156 248.62 28.166 251 27.146Z" fill="#6287B3"/>
<path d="M254 105.146C254.66 105.146 255.32 105.146 256 105.146C256 106.466 256 107.786 256 109.146C256.99 109.146 257.98 109.146 259 109.146C259.125 112.021 259.125 112.021 259 115.146C258.34 115.806 257.68 116.466 257 117.146C256.567 116.032 256.567 116.032 256.125 114.896C255.088 112.203 255.088 112.203 253.812 110.021C253 108.146 253 108.146 254 105.146Z" fill="#3E75AA"/>
<path d="M137.188 71.021C139.075 71.0829 139.075 71.0829 141 71.146C141.33 72.136 141.66 73.126 142 74.146C140.565 74.3687 139.127 74.5736 137.688 74.771C136.887 74.887 136.086 75.0031 135.262 75.1226C133 75.146 133 75.146 130 73.146C133.089 71.0868 133.709 70.907 137.188 71.021Z" fill="#4184C1"/>
<path d="M178 4.14603C177.67 5.79603 177.34 7.44603 177 9.14603C176.34 9.14603 175.68 9.14603 175 9.14603C174.67 9.80603 174.34 10.466 174 11.146C171 9.14603 171 9.14603 170 7.14603C174.625 4.14603 174.625 4.14603 178 4.14603Z" fill="#5B85B3"/>
<path d="M188 2.14602C187.67 3.13602 187.34 4.12602 187 5.14602C182.545 5.64102 182.545 5.64102 178 6.14602C178 5.15602 178 4.16602 178 3.14602C181.215 1.53876 184.436 2.08854 188 2.14602Z" fill="#4B76AB"/>
<path d="M103 123.146C103.33 123.146 103.66 123.146 104 123.146C104.39 125.081 104.761 127.019 105.125 128.959C105.334 130.037 105.543 131.116 105.758 132.228C106 135.146 106 135.146 104 138.146C103.34 137.816 102.68 137.486 102 137.146C102.33 132.526 102.66 127.906 103 123.146Z" fill="#4C87AF"/>
<path d="M254 85.146C254.33 85.146 254.66 85.146 255 85.146C255 87.126 255 89.106 255 91.146C255.66 91.146 256.32 91.146 257 91.146C257.33 90.486 257.66 89.826 258 89.146C257.719 90.7937 257.425 92.4392 257.125 94.0835C256.963 95 256.8 95.9166 256.633 96.8609C256.424 97.615 256.215 98.3691 256 99.146C255.01 99.641 255.01 99.641 254 100.146C254 95.196 254 90.246 254 85.146Z" fill="#6187B8"/>
<path d="M254 13.146C254.99 13.146 255.98 13.146 257 13.146C257 16.116 257 19.086 257 22.146C256.34 22.146 255.68 22.146 255 22.146C254.67 23.136 254.34 24.126 254 25.146C254 21.186 254 17.226 254 13.146Z" fill="#3E658B"/>
<path d="M222 166.146C222.66 166.146 223.32 166.146 224 166.146C222.841 169.623 222.136 170.366 219 172.146C215.75 172.334 215.75 172.334 213 172.146C213.33 171.156 213.66 170.166 214 169.146C216.31 168.403 218.646 167.735 221 167.146C221.33 166.816 221.66 166.486 222 166.146Z" fill="#4E78A3"/>
<path d="M236 52.146C236.33 52.146 236.66 52.146 237 52.146C237.027 53.6043 237.046 55.0626 237.062 56.521C237.074 57.3331 237.086 58.1452 237.098 58.982C237 61.146 237 61.146 236 63.146C236.99 63.476 237.98 63.806 239 64.146C239 65.136 239 66.126 239 67.146C236.378 66.0973 235.206 65.4967 233.75 63.021C233.502 62.4023 233.255 61.7835 233 61.146C233.66 60.486 234.32 59.826 235 59.146C235.4 56.8233 235.74 54.4886 236 52.146Z" fill="#6D94BD"/>
<path d="M199 0.146015C199 0.806015 199 1.46601 199 2.14601C187.478 3.47859 187.478 3.47859 182 2.14601C182 1.81601 182 1.48601 182 1.14601C187.72 0.313957 193.222 0.0256481 199 0.146015Z" fill="#6985AF"/>
<path d="M163 183.146C161.77 183.345 161.77 183.345 160.516 183.548C158.899 183.813 158.899 183.813 157.25 184.084C155.649 184.345 155.649 184.345 154.016 184.611C151.106 185.078 151.106 185.078 148.734 185.775C147 186.146 147 186.146 145 185.146C145 184.486 145 183.826 145 183.146C147.249 182.951 149.5 182.765 151.75 182.584C153.003 182.479 154.256 182.375 155.547 182.267C158.395 182.167 160.343 182.24 163 183.146Z" fill="#386293"/>
<path d="M208 105.146C208.99 105.641 208.99 105.641 210 106.146C210.902 108.853 211.119 110.384 211.098 113.158C211.093 114.294 211.093 114.294 211.088 115.453C211.08 116.238 211.071 117.024 211.062 117.834C211.058 118.631 211.053 119.428 211.049 120.25C211.037 122.215 211.019 124.181 211 126.146C210.67 126.146 210.34 126.146 210 126.146C209.939 125.217 209.879 124.287 209.816 123.33C209.204 114.205 209.204 114.205 208 105.146Z" fill="#7A9BC3"/>
<path d="M238 51.146C238.33 51.146 238.66 51.146 239 51.146C239.33 55.106 239.66 59.066 240 63.146C239.01 63.641 239.01 63.641 238 64.146C237.34 63.816 236.68 63.486 236 63.146C236.14 61.3331 236.287 59.5207 236.438 57.7085C236.519 56.6992 236.6 55.6899 236.684 54.6499C237 52.146 237 52.146 238 51.146Z" fill="#3C6BA6"/>
<path d="M204 158.146C204.33 159.796 204.66 161.446 205 163.146C202 165.146 202 165.146 199.812 164.771C199.214 164.565 198.616 164.359 198 164.146C198.66 164.146 199.32 164.146 200 164.146C200 162.496 200 160.846 200 159.146C202 158.146 202 158.146 204 158.146Z" fill="#457AA7"/>
<path d="M270 59.146C270.33 60.466 270.66 61.786 271 63.146C268.36 62.816 265.72 62.486 263 62.146C263 61.156 263 60.166 263 59.146C266.133 58.1015 266.99 58.2118 270 59.146Z" fill="#687CA4"/>
<path d="M100 138.146C100.66 138.146 101.32 138.146 102 138.146C101.812 140.521 101.812 140.521 101 143.146C98.4375 144.459 98.4375 144.459 96 145.146C95.67 143.826 95.34 142.506 95 141.146C96.32 141.146 97.64 141.146 99 141.146C99.33 140.156 99.66 139.166 100 138.146Z" fill="#5182B9"/>
<path d="M257 92.146C257.33 92.146 257.66 92.146 258 92.146C258 95.116 258 98.086 258 101.146C257.34 101.146 256.68 101.146 256 101.146C256 101.806 256 102.466 256 103.146C255.01 103.146 254.02 103.146 253 103.146C253.63 100.205 254.624 97.8116 256 95.146C256.33 94.156 256.66 93.166 257 92.146Z" fill="#4184B9"/>
<path d="M172 81.146C174.667 83.6356 176.557 85.7801 178 89.146C176.68 90.136 175.36 91.126 174 92.146C173.34 91.156 172.68 90.166 172 89.146C172.66 89.146 173.32 89.146 174 89.146C173.67 88.5685 173.34 87.991 173 87.396C172 85.146 172 85.146 172 81.146Z" fill="#678EB4"/>
<path d="M160 17.146C161.32 18.136 162.64 19.126 164 20.146C163.67 22.126 163.34 24.106 163 26.146C161.68 25.816 160.36 25.486 159 25.146C159.66 25.146 160.32 25.146 161 25.146C161 23.826 161 22.506 161 21.146C160.01 21.476 159.02 21.806 158 22.146C158.66 20.496 159.32 18.846 160 17.146Z" fill="#5A8DC0"/>
<path d="M249 130.146C249.66 130.476 250.32 130.806 251 131.146C249.125 136.896 249.125 136.896 248 139.146C247.34 139.146 246.68 139.146 246 139.146C245.67 137.166 245.34 135.186 245 133.146C246.32 132.816 247.64 132.486 249 132.146C249 131.486 249 130.826 249 130.146Z" fill="#4580BF"/>
<path d="M176 73.146C178.375 73.771 178.375 73.771 181 75.146C182.312 78.271 182.312 78.271 183 81.146C180.03 79.166 177.06 77.186 174 75.146C174.66 74.486 175.32 73.826 176 73.146Z" fill="#7291B4"/>
<path d="M269 35.146C269 35.476 269 35.806 269 36.146C267.927 36.3729 266.855 36.5998 265.75 36.8335C261.628 38.2763 260.356 39.5651 258 43.146C257.67 41.826 257.34 40.506 257 39.146C261.001 35.2663 263.481 34.7132 269 35.146Z" fill="#6D8DAC"/>
<path d="M206 11.146C207.98 11.806 209.96 12.466 212 13.146C212.33 14.796 212.66 16.446 213 18.146C209.171 16.6935 207.879 14.7171 206 11.146Z" fill="#537EA7"/>
<path d="M205 8.14601C205.66 9.79601 206.32 11.446 207 13.146C203.37 12.156 199.74 11.166 196 10.146C199.435 7.85588 200.985 7.96758 205 8.14601Z" fill="#6E92BC"/>
<path d="M206 179.146C204.566 179.82 203.127 180.485 201.688 181.146C200.487 181.703 200.487 181.703 199.262 182.271C197 183.146 197 183.146 194 183.146C194 182.486 194 181.826 194 181.146C195.244 180.611 196.496 180.094 197.75 179.584C198.446 179.293 199.142 179.003 199.859 178.705C202.3 178.068 203.64 178.344 206 179.146Z" fill="#6887AC"/>
<path d="M192 173.146C191.196 173.909 190.391 174.672 189.562 175.459C186.832 177.94 186.832 177.94 186 181.146C185.34 181.146 184.68 181.146 184 181.146C184.33 179.496 184.66 177.846 185 176.146C184.01 175.816 183.02 175.486 182 175.146C183.288 174.616 184.58 174.097 185.875 173.584C186.594 173.293 187.314 173.003 188.055 172.705C190 172.146 190 172.146 192 173.146Z" fill="#648EB9"/>
<path d="M174 176.146C174 176.476 174 176.806 174 177.146C172.043 177.367 170.084 177.573 168.125 177.771C166.489 177.945 166.489 177.945 164.82 178.123C163.424 178.134 163.424 178.134 162 178.146C161.34 177.486 160.68 176.826 160 176.146C164.793 174.755 169.151 175.459 174 176.146Z" fill="#678DB4"/>
<path d="M95 99.146C95.99 99.146 96.98 99.146 98 99.146C98.33 100.136 98.66 101.126 99 102.146C97.125 105.334 97.125 105.334 95 108.146C94.67 108.146 94.34 108.146 94 108.146C94.33 105.176 94.66 102.206 95 99.146Z" fill="#4C74A4"/>
<path d="M244 63.146C246.64 63.146 249.28 63.146 252 63.146C252.33 64.136 252.66 65.126 253 66.146C250.36 66.146 247.72 66.146 245 66.146C244.67 65.156 244.34 64.166 244 63.146Z" fill="#3E5775"/>
<path d="M254 42.146C254.99 42.476 255.98 42.806 257 43.146C257 45.786 257 48.426 257 51.146C256.01 51.146 255.02 51.146 254 51.146C254 48.176 254 45.206 254 42.146Z" fill="#446180"/>
<path d="M156 25.146C156.33 25.806 156.66 26.466 157 27.146C157.99 27.476 158.98 27.806 160 28.146C159.625 30.5835 159.625 30.5835 159 33.146C158.01 33.641 158.01 33.641 157 34.146C157 33.156 157 32.166 157 31.146C156.34 31.146 155.68 31.146 155 31.146C155.33 29.166 155.66 27.186 156 25.146Z" fill="#5685B6"/>
<path d="M195 154.146C195.33 154.806 195.66 155.466 196 156.146C197.65 155.486 199.3 154.826 201 154.146C201.33 155.796 201.66 157.446 202 159.146C197.545 158.156 197.545 158.156 193 157.146C193.66 156.156 194.32 155.166 195 154.146Z" fill="#5D89C1"/>
<path d="M131 152.146C131.66 152.146 132.32 152.146 133 152.146C133.268 152.744 133.536 153.342 133.812 153.959C134.985 156.118 136.194 157.504 138 159.146C137.01 159.641 137.01 159.641 136 160.146C134.02 158.826 132.04 157.506 130 156.146C130.33 154.826 130.66 153.506 131 152.146Z" fill="#6B93BE"/>
<path d="M212 145.146C212.33 146.136 212.66 147.126 213 148.146C213.99 147.816 214.98 147.486 216 147.146C216 147.806 216 148.466 216 149.146C216.99 149.476 217.98 149.806 219 150.146C218.01 150.806 217.02 151.466 216 152.146C214.35 151.156 212.7 150.166 211 149.146C211.33 147.826 211.66 146.506 212 145.146Z" fill="#5B8BC1"/>
<path d="M245 143.146C245.33 144.136 245.66 145.126 246 146.146C245.67 146.806 245.34 147.466 245 148.146C244.34 148.146 243.68 148.146 243 148.146C242.711 148.765 242.423 149.384 242.125 150.021C241 152.146 241 152.146 239 154.146C239.445 149.106 241.713 146.77 245 143.146Z" fill="#5E82A6"/>
<path d="M155 72.146C156.65 72.146 158.3 72.146 160 72.146C160 73.136 160 74.126 160 75.146C159.01 75.146 158.02 75.146 157 75.146C157 75.806 157 76.466 157 77.146C155.68 76.816 154.36 76.486 153 76.146C153.66 74.826 154.32 73.506 155 72.146Z" fill="#3E73A1"/>
<path d="M237 71.146C237.99 71.476 238.98 71.806 240 72.146C240 74.456 240 76.766 240 79.146C239.01 79.146 238.02 79.146 237 79.146C237 76.506 237 73.866 237 71.146Z" fill="#395578"/>
<path d="M211 6.14603C213.31 6.80603 215.62 7.46603 218 8.14603C218.33 9.46603 218.66 10.786 219 12.146C217.68 12.146 216.36 12.146 215 12.146C215 11.486 215 10.826 215 10.146C214.01 9.81603 213.02 9.48603 212 9.14603C211.67 8.15603 211.34 7.16603 211 6.14603Z" fill="#4473A3"/>
<path d="M186 172.146C185.34 172.146 184.68 172.146 184 172.146C184 172.806 184 173.466 184 174.146C177.714 176.575 177.714 176.575 174 175.146C174.99 175.146 175.98 175.146 177 175.146C177 174.486 177 173.826 177 173.146C182.625 171.021 182.625 171.021 186 172.146Z" fill="#6085AB"/>
<path d="M145 169.146C151.93 169.641 151.93 169.641 159 170.146C159 170.476 159 170.806 159 171.146C157.23 171.341 155.459 171.527 153.688 171.709C152.701 171.813 151.715 171.917 150.699 172.025C148 172.146 148 172.146 145 171.146C145 170.486 145 169.826 145 169.146Z" fill="#6785AA"/>
<path d="M129 163.146C131.475 164.136 131.475 164.136 134 165.146C132.875 166.646 132.875 166.646 131 168.146C127.812 168.334 127.812 168.334 125 168.146C125.33 167.156 125.66 166.166 126 165.146C126.99 165.146 127.98 165.146 129 165.146C129 164.486 129 163.826 129 163.146Z" fill="#588CBF"/>
<path d="M114 152.146C116.712 153.759 119.374 155.395 122 157.146C122 158.136 122 159.126 122 160.146C118.638 158.705 116.408 156.899 114 154.146C114 153.486 114 152.826 114 152.146Z" fill="#4A7197"/>
<path d="M236 136.146C236.66 137.466 237.32 138.786 238 140.146C236.35 141.796 234.7 143.446 233 145.146C232.01 144.816 231.02 144.486 230 144.146C230.33 143.486 230.66 142.826 231 142.146C231.66 142.146 232.32 142.146 233 142.146C233.309 141.527 233.619 140.909 233.938 140.271C234.625 138.896 235.312 137.521 236 136.146Z" fill="#6484A7"/>
<path d="M187 179.146C189.97 179.641 189.97 179.641 193 180.146C193.33 181.136 193.66 182.126 194 183.146C192.02 183.146 190.04 183.146 188 183.146C187.67 181.826 187.34 180.506 187 179.146Z" fill="#4175B1"/>
<path d="M190.375 162.959C190.911 163.35 191.448 163.742 192 164.146C192 164.476 192 164.806 192 165.146C190.713 165.535 189.42 165.907 188.125 166.271C187.046 166.584 187.046 166.584 185.945 166.904C185.303 166.984 184.661 167.064 184 167.146C183.34 166.486 182.68 165.826 182 165.146C187.415 161.946 187.415 161.946 190.375 162.959Z" fill="#4180B5"/>
<path d="M225 149.146C225.33 150.136 225.66 151.126 226 152.146C220.857 156.575 220.857 156.575 217 157.146C219.667 154.479 222.333 151.813 225 149.146Z" fill="#6388A9"/>
<path d="M113 149.146C113.33 149.806 113.66 150.466 114 151.146C114.66 151.146 115.32 151.146 116 151.146C114.493 154.159 111.968 154.757 109 156.146C109 154.496 109 152.846 109 151.146C110.32 151.146 111.64 151.146 113 151.146C113 150.486 113 149.826 113 149.146Z" fill="#5887BC"/>
<path d="M172 110.146C175.796 110.688 177.472 112.347 180 115.146C179.67 116.136 179.34 117.126 179 118.146C177.83 117.003 176.664 115.857 175.5 114.709C174.85 114.07 174.201 113.432 173.531 112.775C172 111.146 172 111.146 172 110.146Z" fill="#4E739E"/>
<path d="M152 91.146C153.65 91.476 155.3 91.806 157 92.146C157 93.466 157 94.786 157 96.146C156.34 95.816 155.68 95.486 155 95.146C155 94.486 155 93.826 155 93.146C154.34 93.146 153.68 93.146 153 93.146C153 93.806 153 94.466 153 95.146C152.01 94.816 151.02 94.486 150 94.146C150.66 93.156 151.32 92.166 152 91.146Z" fill="#6B8DAE"/>
<path d="M238 49.146C238.66 49.476 239.32 49.806 240 50.146C240.633 52.6499 240.633 52.6499 241.125 55.7085C241.293 56.7204 241.46 57.7324 241.633 58.7749C241.754 59.5574 241.875 60.3399 242 61.146C241.01 61.146 240.02 61.146 239 61.146C238.831 59.7088 238.665 58.2712 238.5 56.8335C238.407 56.033 238.314 55.2325 238.219 54.4077C238 52.146 238 52.146 238 49.146Z" fill="#5F7AA1"/>
<path d="M273 49.146C275.154 51.768 276.401 53.7901 277 57.146C275.35 57.146 273.7 57.146 272 57.146C272.33 54.506 272.66 51.866 273 49.146Z" fill="#2F6A9B"/>
<path d="M274 46.146C274.99 46.146 275.98 46.146 277 46.146C277 49.116 277 52.086 277 55.146C274.903 52.7863 274.031 51.5999 273.812 48.396C273.874 47.6535 273.936 46.911 274 46.146Z" fill="#5B79A4"/>
<path d="M205 97.146C206.333 99.8127 207.667 102.479 209 105.146C208.34 105.806 207.68 106.466 207 107.146C203 100.396 203 100.396 203 98.146C203.66 97.816 204.32 97.486 205 97.146Z" fill="#6687AC"/>
<path d="M255 82.146C255.66 82.476 256.32 82.806 257 83.146C258.275 88.5953 258.275 88.5953 257 91.146C256.34 91.146 255.68 91.146 255 91.146C254.121 84.9937 254.121 84.9937 254 83.146C254.33 82.816 254.66 82.486 255 82.146Z" fill="#2C4F6F"/>
<path d="M219 85.146C223.875 89.896 223.875 89.896 225 92.146C224.01 92.476 223.02 92.806 222 93.146C221.897 92.5067 221.794 91.8673 221.688 91.2085C221.461 90.5279 221.234 89.8473 221 89.146C220.01 88.816 219.02 88.486 218 88.146C218.33 87.156 218.66 86.166 219 85.146Z" fill="#6688AF"/>
<path d="M113 86.146C112.34 87.466 111.68 88.786 111 90.146C109.68 90.146 108.36 90.146 107 90.146C107 88.826 107 87.506 107 86.146C109.491 84.9006 110.411 85.3693 113 86.146Z" fill="#4581BD"/>
<path d="M153 77.146C155.97 77.476 158.94 77.806 162 78.146C162.33 79.136 162.66 80.126 163 81.146C159.442 80.5361 156.317 79.5677 153 78.146C153 77.816 153 77.486 153 77.146Z" fill="#7490B8"/>
<path d="M231 62.146C232.98 62.641 232.98 62.641 235 63.146C234.34 63.806 233.68 64.466 233 65.146C233.99 66.136 234.98 67.126 236 68.146C235.01 68.641 235.01 68.641 234 69.146C232.68 68.156 231.36 67.166 230 66.146C230.33 64.826 230.66 63.506 231 62.146Z" fill="#4976A2"/>
<path d="M159 21.146C159.66 21.146 160.32 21.146 161 21.146C161 23.456 161 25.766 161 28.146C159.68 27.816 158.36 27.486 157 27.146C157.875 22.271 157.875 22.271 159 21.146Z" fill="#4971A6"/>
<path d="M179 9.14603C180.65 9.14603 182.3 9.14603 184 9.14603C184 10.136 184 11.126 184 12.146C182.02 12.476 180.04 12.806 178 13.146C178.33 11.826 178.66 10.506 179 9.14603Z" fill="#517DAC"/>
<path d="M1 218.146C2.98 218.641 2.98 218.641 5 219.146C4.67 221.456 4.34 223.766 4 226.146C1.9375 223.834 1.9375 223.834 0 221.146C0.33 220.156 0.66 219.166 1 218.146Z" fill="#1D1D1C"/>
<path d="M164 182.146C166.97 182.476 169.94 182.806 173 183.146C173 184.136 173 185.126 173 186.146C171.02 186.146 169.04 186.146 167 186.146C167.33 185.486 167.66 184.826 168 184.146C166.68 183.486 165.36 182.826 164 182.146Z" fill="#427DB9"/>
<path d="M181 177.146C180.67 177.806 180.34 178.466 180 179.146C177.715 179.56 177.715 179.56 174.938 179.771C174.018 179.846 173.099 179.921 172.152 179.998C171.442 180.047 170.732 180.096 170 180.146C174.134 177.39 176.052 177.038 181 177.146Z" fill="#648EAF"/>
<path d="M201 168.146C201 169.136 201 170.126 201 171.146C196.545 171.641 196.545 171.641 192 172.146C198 168.146 198 168.146 201 168.146Z" fill="#698DAD"/>
<path d="M112 164.146C115.937 165.458 118.227 167.065 121 170.146C117.826 170.146 116.621 169.837 114 168.146C112.75 166.021 112.75 166.021 112 164.146Z" fill="#5F7AA0"/>
<path d="M240 130.146C240.99 130.476 241.98 130.806 243 131.146C242.67 132.466 242.34 133.786 242 135.146C240.35 135.476 238.7 135.806 237 136.146C237.99 134.166 238.98 132.186 240 130.146Z" fill="#618CB7"/>
<path d="M163 117.146C162.67 119.786 162.34 122.426 162 125.146C161.67 125.146 161.34 125.146 161 125.146C161 123.166 161 121.186 161 119.146C159.02 119.146 157.04 119.146 155 119.146C155 118.816 155 118.486 155 118.146C157.763 117.549 160.16 117.146 163 117.146Z" fill="#628BB7"/>
<path d="M144 98.146C144.66 98.476 145.32 98.806 146 99.146C144.865 102.55 144.032 103.363 141 105.146C140.01 104.816 139.02 104.486 138 104.146C138.66 104.146 139.32 104.146 140 104.146C140.33 103.156 140.66 102.166 141 101.146C141.66 101.146 142.32 101.146 143 101.146C143.33 100.156 143.66 99.166 144 98.146Z" fill="#7390AD"/>
<path d="M129 78.146C126.47 81.2377 123.775 82.0554 120 83.146C121.648 78.2031 124.231 77.8883 129 78.146Z" fill="#6087AA"/>
<path d="M277 53.146C277.433 53.5998 277.866 54.0535 278.312 54.521C280.108 56.3463 280.108 56.3463 283 58.146C281.02 58.806 279.04 59.466 277 60.146C275.955 57.0125 276.066 56.1563 277 53.146Z" fill="#658BB8"/>
<path d="M219 10.146C219.99 11.466 220.98 12.786 222 14.146C221.34 14.806 220.68 15.466 220 16.146C219.01 16.146 218.02 16.146 217 16.146C217 14.496 217 12.846 217 11.146C217.66 10.816 218.32 10.486 219 10.146Z" fill="#5281AE"/>
<path d="M134 166.146C138.95 167.136 138.95 167.136 144 168.146C139.645 170.324 138.534 170.176 134 169.146C134 168.156 134 167.166 134 166.146Z" fill="#7D99BB"/>
<path d="M215 150.146C215.33 151.136 215.66 152.126 216 153.146C214.68 154.466 213.36 155.786 212 157.146C211.01 156.816 210.02 156.486 209 156.146C210.98 154.166 212.96 152.186 215 150.146Z" fill="#4A6F99"/>
<path d="M213 144.146C215.475 144.641 215.475 144.641 218 145.146C217.67 146.466 217.34 147.786 217 149.146C215.68 148.816 214.36 148.486 213 148.146C213 146.826 213 145.506 213 144.146Z" fill="#417FB5"/>
<path d="M181 119.146C183.867 119.719 184.861 120.007 187 122.146C183.622 122.991 181.325 123.254 178 122.146C178.99 122.146 179.98 122.146 181 122.146C181 121.156 181 120.166 181 119.146Z" fill="#5D80A9"/>
<path d="M211 78.146C212.32 78.476 213.64 78.806 215 79.146C215.33 80.466 215.66 81.786 216 83.146C214.68 82.816 213.36 82.486 212 82.146C211.67 80.826 211.34 79.506 211 78.146Z" fill="#587CA7"/>
<path d="M103 156.146C107.677 157.623 107.677 157.623 109.312 160.271C109.539 160.89 109.766 161.509 110 162.146C109.01 162.641 109.01 162.641 108 163.146C106.35 160.836 104.7 158.526 103 156.146Z" fill="#7B95B9"/>
<path d="M192 157.146C193.32 157.476 194.64 157.806 196 158.146C194 161.146 194 161.146 191.875 161.834C191.256 161.937 190.637 162.04 190 162.146C190.66 160.496 191.32 158.846 192 157.146Z" fill="#4A76A7"/>
<path d="M177 156.146C177.33 156.146 177.66 156.146 178 156.146C178 157.796 178 159.446 178 161.146C176.02 161.476 174.04 161.806 172 162.146C173.642 160.125 175.309 158.126 177 156.146Z" fill="#43698A"/>
<path d="M225 152.146C225.33 153.136 225.66 154.126 226 155.146C223.03 156.466 220.06 157.786 217 159.146C217 158.486 217 157.826 217 157.146C218.75 155.857 218.75 155.857 221 154.521C221.742 154.075 222.485 153.629 223.25 153.169C223.827 152.832 224.405 152.494 225 152.146Z" fill="#4176AB"/>
<path d="M101 145.146C101.99 145.476 102.98 145.806 104 146.146C104 147.796 104 149.446 104 151.146C102.68 150.486 101.36 149.826 100 149.146C100.33 147.826 100.66 146.506 101 145.146Z" fill="#3C83C2"/>
<path d="M100 145.146C100.124 145.724 100.247 146.301 100.375 146.896C101.006 149.169 101.889 151.071 103 153.146C101.062 152.459 101.062 152.459 99 151.146C98.25 148.521 98.25 148.521 98 146.146C98.66 145.816 99.32 145.486 100 145.146Z" fill="#416E96"/>
<path d="M229 145.146C229.99 145.476 230.98 145.806 232 146.146C230.719 147.854 229.382 149.52 228 151.146C227.34 151.146 226.68 151.146 226 151.146C226.573 148.279 226.861 147.285 229 145.146Z" fill="#4C7196"/>
<path d="M250 133.146C250.66 133.146 251.32 133.146 252 133.146C251.521 137.46 250.254 139.312 247 142.146C247.99 139.176 248.98 136.206 250 133.146Z" fill="#2B5387"/>
<path d="M153 129.146C153.66 129.146 154.32 129.146 155 129.146C155 131.786 155 134.426 155 137.146C154.34 137.146 153.68 137.146 153 137.146C151.903 133.856 152.2 132.433 153 129.146Z" fill="#285A83"/>
<path d="M118 81.146C115.64 83.5055 114.221 83.6374 111 84.146C111 83.156 111 82.166 111 81.146C114.133 80.1015 114.99 80.2118 118 81.146Z" fill="#4A83C1"/>
<path d="M283 58.146C284.65 58.476 286.3 58.806 288 59.146C287.67 60.136 287.34 61.126 287 62.146C285.02 62.146 283.04 62.146 281 62.146C281.99 61.816 282.98 61.486 284 61.146C283.67 60.156 283.34 59.166 283 58.146Z" fill="#7B8FAC"/>
<path d="M160 59.146C162.438 59.9585 162.438 59.9585 165 61.146C165.33 62.136 165.66 63.126 166 64.146C165.01 64.476 164.02 64.806 163 65.146C160 61.396 160 61.396 160 59.146Z" fill="#557EAB"/>
<path d="M215 20.146C215.66 20.806 216.32 21.466 217 22.146C216.967 24.8747 216.436 27.4427 216 30.146C215.01 30.476 214.02 30.806 213 31.146C213 30.156 213 29.166 213 28.146C213.66 28.146 214.32 28.146 215 28.146C215 25.506 215 22.866 215 20.146Z" fill="#4271A1"/>
<path d="M174 15.146C176.062 15.5835 176.062 15.5835 178 16.146C177.381 16.7442 176.762 17.3423 176.125 17.9585C173.863 20.1541 173.863 20.1541 172 23.146C172.875 16.271 172.875 16.271 174 15.146Z" fill="#6886B0"/>
<path d="M322.347 58.742C323.382 58.742 324.481 58.8067 325.645 58.936C326.874 59.0653 328.038 59.2593 329.137 59.518C330.301 59.712 331.336 59.9383 332.241 60.197C333.211 60.391 333.955 60.6173 334.472 60.876V71.643H333.599C333.599 68.539 332.532 66.114 330.398 64.368C328.264 62.5573 325.677 61.652 322.638 61.652C319.081 61.652 316.204 62.7837 314.005 65.047C311.806 67.2457 310.707 69.8323 310.707 72.807C310.707 74.0357 310.966 75.4907 311.483 77.172C312.065 78.7887 313.1 80.3083 314.587 81.731L333.696 99.385C335.636 101.196 336.929 103.136 337.576 105.205C338.223 107.274 338.546 109.279 338.546 111.219C338.546 116.586 336.897 120.951 333.599 124.314C330.366 127.677 325.968 129.358 320.407 129.358C318.855 129.358 317.012 129.196 314.878 128.873C312.809 128.55 310.772 128 308.767 127.224C306.827 126.383 305.21 125.316 303.917 124.023C303.723 122.988 303.626 121.695 303.626 120.143C303.626 118.591 303.755 116.974 304.014 115.293C304.273 113.547 304.628 111.963 305.081 110.54H305.954C305.631 113.838 306.051 116.716 307.215 119.173C308.379 121.63 310.06 123.506 312.259 124.799C314.522 126.028 317.077 126.577 319.922 126.448C323.479 126.254 326.518 125.025 329.04 122.762C331.627 120.434 332.92 117.33 332.92 113.45C332.92 111.575 332.597 109.893 331.95 108.406C331.303 106.854 330.366 105.528 329.137 104.429L310.513 87.163C308.573 85.3523 307.215 83.38 306.439 81.246C305.663 79.0473 305.275 77.0103 305.275 75.135C305.275 72.419 305.922 69.8 307.215 67.278C308.508 64.756 310.416 62.719 312.938 61.167C315.525 59.5503 318.661 58.742 322.347 58.742ZM334.472 59.712V61.749H327.1V59.712H334.472ZM350.148 60.682H358.005L376.047 118.591L374.398 129.164L350.148 60.682ZM393.604 58.548L394.38 66.405L377.308 118.397C377.308 118.397 377.146 118.979 376.823 120.143C376.5 121.242 376.176 122.633 375.853 124.314C375.53 125.931 375.336 127.547 375.271 129.164H374.398L372.652 120.531L392.731 58.548H393.604ZM393.604 58.645L413.974 115.778L411.84 129.164L390.306 69.121L393.604 58.645ZM432.986 60.682L414.847 118.397C414.847 118.397 414.685 118.979 414.362 120.143C414.039 121.307 413.683 122.73 413.295 124.411C412.972 126.028 412.778 127.612 412.713 129.164H411.84L410.676 119.561L427.554 60.682H432.986ZM425.711 67.084C426.228 65.144 426.067 63.6567 425.226 62.622C424.385 61.5873 423.318 61.07 422.025 61.07H421.152V60.1H440.261V61.07C440.261 61.07 440.132 61.07 439.873 61.07C439.614 61.07 439.485 61.07 439.485 61.07C437.998 61.07 436.381 61.555 434.635 62.525C432.889 63.4303 431.66 64.95 430.949 67.084H425.711ZM360.042 67.084H352.379C351.603 64.95 350.342 63.4303 348.596 62.525C346.915 61.555 345.33 61.07 343.843 61.07C343.843 61.07 343.714 61.07 343.455 61.07C343.196 61.07 343.067 61.07 343.067 61.07V60.1H364.601V61.07H363.728C362.499 61.07 361.4 61.5873 360.43 62.622C359.525 63.6567 359.395 65.144 360.042 67.084ZM458.926 60.1V128H452.621V60.1H458.926ZM452.912 120.919V128H445.152V127.03C445.152 127.03 445.346 127.03 445.734 127.03C446.187 127.03 446.413 127.03 446.413 127.03C448.094 127.03 449.517 126.448 450.681 125.284C451.91 124.055 452.556 122.6 452.621 120.919H452.912ZM452.912 67.181H452.621C452.556 65.4997 451.91 64.077 450.681 62.913C449.517 61.6843 448.094 61.07 446.413 61.07C446.413 61.07 446.187 61.07 445.734 61.07C445.346 61.07 445.152 61.07 445.152 61.07V60.1H452.912V67.181ZM458.635 120.919H458.926C458.991 122.6 459.605 124.055 460.769 125.284C461.998 126.448 463.453 127.03 465.134 127.03C465.134 127.03 465.328 127.03 465.716 127.03C466.104 127.03 466.33 127.03 466.395 127.03V128H458.635V120.919ZM458.635 67.181V60.1H466.395V61.07C466.33 61.07 466.104 61.07 465.716 61.07C465.328 61.07 465.134 61.07 465.134 61.07C463.453 61.07 461.998 61.6843 460.769 62.913C459.605 64.077 458.991 65.4997 458.926 67.181H458.635ZM491.701 60.1V128H485.396V60.1H491.701ZM513.72 93.08V95.99H491.41V93.08H513.72ZM517.891 60.1V63.107H491.41V60.1H517.891ZM513.72 95.796V102.198H512.75V100.743C512.75 99.4497 512.298 98.3503 511.392 97.445C510.487 96.475 509.388 95.99 508.094 95.99V95.796H513.72ZM513.72 86.872V93.274H508.094V93.08C509.388 93.0153 510.487 92.5303 511.392 91.625C512.298 90.655 512.75 89.5233 512.75 88.23V86.872H513.72ZM517.891 62.816V69.315H516.921V67.86C516.921 66.5667 516.436 65.4673 515.466 64.562C514.561 63.592 513.462 63.107 512.168 63.107V62.816H517.891ZM517.891 58.354V61.167L506.057 60.1C507.48 60.1 508.967 60.003 510.519 59.809C512.136 59.615 513.623 59.3887 514.981 59.13C516.339 58.8713 517.309 58.6127 517.891 58.354ZM485.687 120.919V128H477.927V127.03C477.927 127.03 478.121 127.03 478.509 127.03C478.962 127.03 479.188 127.03 479.188 127.03C480.87 127.03 482.292 126.448 483.456 125.284C484.685 124.055 485.332 122.6 485.396 120.919H485.687ZM485.687 67.181H485.396C485.396 65.4997 484.782 64.077 483.553 62.913C482.325 61.6843 480.87 61.07 479.188 61.07C479.188 61.07 478.994 61.07 478.606 61.07C478.218 61.07 478.024 61.07 478.024 61.07L477.927 60.1H485.687V67.181ZM491.41 120.919H491.701C491.766 122.6 492.38 124.055 493.544 125.284C494.773 126.448 496.228 127.03 497.909 127.03C497.909 127.03 498.103 127.03 498.491 127.03C498.879 127.03 499.106 127.03 499.17 127.03V128H491.41V120.919ZM557.76 60.391V128H551.455V60.391H557.76ZM582.689 60.003V62.913H526.526V60.003H582.689ZM582.689 62.622V70.479L581.719 70.382V68.733C581.719 67.1163 581.137 65.7583 579.973 64.659C578.874 63.5597 577.548 62.9777 575.996 62.913V62.622H582.689ZM582.689 58.257V61.07L570.855 60.003C572.278 60.003 573.765 59.906 575.317 59.712C576.934 59.518 578.421 59.2917 579.779 59.033C581.137 58.7743 582.107 58.5157 582.689 58.257ZM551.746 120.919V128H543.986V127.03C543.986 127.03 544.18 127.03 544.568 127.03C545.021 127.03 545.247 127.03 545.247 127.03C546.928 127.03 548.351 126.448 549.515 125.284C550.744 124.055 551.39 122.6 551.455 120.919H551.746ZM557.469 120.919H557.76C557.825 122.6 558.439 124.055 559.603 125.284C560.832 126.448 562.287 127.03 563.968 127.03C563.968 127.03 564.162 127.03 564.55 127.03C565.003 127.03 565.229 127.03 565.229 127.03V128H557.469V120.919ZM533.219 62.622V62.913C531.602 62.9777 530.244 63.5597 529.145 64.659C528.046 65.7583 527.496 67.1163 527.496 68.733V70.382L526.526 70.479V62.622H533.219ZM526.526 58.257C527.173 58.5157 528.143 58.7743 529.436 59.033C530.794 59.2917 532.281 59.518 533.898 59.712C535.515 59.906 537.002 60.003 538.36 60.003L526.526 61.07V58.257ZM612.551 58.742L641.263 127.418H633.018L610.611 67.957L612.551 58.742ZM591.696 120.919C591.243 122.212 591.178 123.312 591.502 124.217C591.825 125.122 592.342 125.834 593.054 126.351C593.83 126.804 594.606 127.03 595.382 127.03H596.255V128H576.758V127.03C576.758 127.03 576.919 127.03 577.243 127.03C577.501 127.03 577.631 127.03 577.631 127.03C579.118 127.03 580.638 126.577 582.19 125.672C583.806 124.702 585.132 123.118 586.167 120.919H591.696ZM612.551 58.742L613.424 65.532L589.077 127.709H583.257L608.089 68.733C608.089 68.733 608.25 68.345 608.574 67.569C608.962 66.7283 609.382 65.726 609.835 64.562C610.352 63.398 610.772 62.2663 611.096 61.167C611.484 60.0677 611.678 59.2593 611.678 58.742H612.551ZM626.228 101.519V104.429H595.867V101.519H626.228ZM630.593 120.919H638.547C639.517 123.118 640.81 124.702 642.427 125.672C644.043 126.577 645.595 127.03 647.083 127.03C647.083 127.03 647.212 127.03 647.471 127.03C647.729 127.03 647.859 127.03 647.859 127.03V128H626.034V127.03H626.907C628.135 127.03 629.235 126.513 630.205 125.478C631.175 124.379 631.304 122.859 630.593 120.919ZM659.005 58.645L715.362 118.785L716.235 129.358L659.878 69.315L659.005 58.645ZM659.199 121.113V128H651.148V127.03C651.148 127.03 651.439 127.03 652.021 127.03C652.603 127.03 652.927 127.03 652.991 127.03C654.608 127.03 655.998 126.448 657.162 125.284C658.326 124.12 658.908 122.73 658.908 121.113H659.199ZM663.37 121.113C663.37 122.73 663.952 124.12 665.116 125.284C666.28 126.448 667.671 127.03 669.287 127.03C669.352 127.03 669.675 127.03 670.257 127.03C670.839 127.03 671.13 127.03 671.13 127.03V128H663.079V121.113H663.37ZM659.005 58.645L663.273 64.077L663.37 128H658.908V70.77C658.908 67.472 658.747 64.6267 658.423 62.234C658.165 59.8413 658.035 58.645 658.035 58.645H659.005ZM716.235 60.1V116.942C716.235 119.011 716.3 121.016 716.429 122.956C716.559 124.831 716.688 126.383 716.817 127.612C717.011 128.776 717.108 129.358 717.108 129.358H716.235L711.87 124.217V60.1H716.235ZM723.995 60.1V61.07C723.995 61.07 723.704 61.07 723.122 61.07C722.54 61.07 722.249 61.07 722.249 61.07C720.633 61.07 719.242 61.652 718.078 62.816C716.914 63.9153 716.3 65.3057 716.235 66.987H715.944V60.1H723.995ZM704.013 60.1H712.064V66.987H711.87C711.806 65.3057 711.191 63.9153 710.027 62.816C708.928 61.652 707.538 61.07 705.856 61.07C705.856 61.07 705.565 61.07 704.983 61.07C704.401 61.07 704.078 61.07 704.013 61.07V60.1ZM761.745 58.742L790.457 127.418H782.212L759.805 67.957L761.745 58.742ZM740.89 120.919C740.437 122.212 740.373 123.312 740.696 124.217C741.019 125.122 741.537 125.834 742.248 126.351C743.024 126.804 743.8 127.03 744.576 127.03H745.449V128H725.952V127.03C725.952 127.03 726.114 127.03 726.437 127.03C726.696 127.03 726.825 127.03 726.825 127.03C728.312 127.03 729.832 126.577 731.384 125.672C733.001 124.702 734.326 123.118 735.361 120.919H740.89ZM761.745 58.742L762.618 65.532L738.271 127.709H732.451L757.283 68.733C757.283 68.733 757.445 68.345 757.768 67.569C758.156 66.7283 758.576 65.726 759.029 64.562C759.546 63.398 759.967 62.2663 760.29 61.167C760.678 60.0677 760.872 59.2593 760.872 58.742H761.745ZM775.422 101.519V104.429H745.061V101.519H775.422ZM779.787 120.919H787.741C788.711 123.118 790.004 124.702 791.621 125.672C793.238 126.577 794.79 127.03 796.277 127.03C796.277 127.03 796.406 127.03 796.665 127.03C796.924 127.03 797.053 127.03 797.053 127.03V128H775.228V127.03H776.101C777.33 127.03 778.429 126.513 779.399 125.478C780.369 124.379 780.498 122.859 779.787 120.919Z" fill="white"/>
</svg>
